<svg width="1312" height="43" viewBox="0 0 1312 43" fill="none" xmlns="http://www.w3.org/2000/svg">
<rect width="13" height="43" fill="#0956AF"/>
<path d="M26.564 34C26.3 34 26.084 33.916 25.916 33.748C25.748 33.58 25.664 33.364 25.664 33.1V9.7C25.664 9.436 25.748 9.22 25.916 9.052C26.084 8.884 26.3 8.8 26.564 8.8H30.488C30.752 8.8 30.968 8.884 31.136 9.052C31.304 9.22 31.388 9.436 31.388 9.7V28.888H37.796V9.7C37.796 9.436 37.88 9.22 38.048 9.052C38.216 8.884 38.42 8.8 38.66 8.8H42.62C42.884 8.8 43.1 8.884 43.268 9.052C43.436 9.22 43.52 9.436 43.52 9.7V28.888H49.892V9.7C49.892 9.436 49.976 9.22 50.144 9.052C50.312 8.884 50.528 8.8 50.792 8.8H54.716C54.98 8.8 55.196 8.884 55.364 9.052C55.532 9.22 55.616 9.436 55.616 9.7V33.1C55.616 33.364 55.532 33.58 55.364 33.748C55.196 33.916 54.98 34 54.716 34H26.564ZM66.0729 34.36C64.8009 34.36 63.6609 34.12 62.6529 33.64C61.6449 33.136 60.8409 32.464 60.2409 31.624C59.6409 30.784 59.3409 29.848 59.3409 28.816C59.3409 27.112 60.0249 25.768 61.3929 24.784C62.7849 23.8 64.6089 23.128 66.8649 22.768L71.5809 22.084V21.436C71.5809 20.5 71.3649 19.78 70.9329 19.276C70.5009 18.772 69.7449 18.52 68.6649 18.52C67.8729 18.52 67.2369 18.676 66.7569 18.988C66.2769 19.3 65.9049 19.708 65.6409 20.212C65.4489 20.524 65.1729 20.68 64.8129 20.68H61.3929C61.1289 20.68 60.9249 20.608 60.7809 20.464C60.6369 20.296 60.5769 20.104 60.6009 19.888C60.6009 19.48 60.7569 19 61.0689 18.448C61.3809 17.896 61.8609 17.356 62.5089 16.828C63.1569 16.276 63.9849 15.82 64.9929 15.46C66.0009 15.1 67.2369 14.92 68.7009 14.92C70.2129 14.92 71.5089 15.1 72.5889 15.46C73.6689 15.82 74.5329 16.324 75.1809 16.972C75.8289 17.62 76.3089 18.376 76.6209 19.24C76.9329 20.08 77.0889 20.992 77.0889 21.976V33.1C77.0889 33.364 77.0049 33.58 76.8369 33.748C76.6689 33.916 76.4529 34 76.1889 34H72.6609C72.4209 34 72.2169 33.916 72.0489 33.748C71.8809 33.58 71.7969 33.364 71.7969 33.1V31.768C71.4849 32.224 71.0649 32.656 70.5369 33.064C70.0089 33.448 69.3729 33.76 68.6289 34C67.9089 34.24 67.0569 34.36 66.0729 34.36ZM67.5129 30.616C68.3049 30.616 69.0129 30.448 69.6369 30.112C70.2609 29.776 70.7529 29.26 71.1129 28.564C71.4729 27.868 71.6529 26.992 71.6529 25.936V25.324L68.3049 25.864C67.0089 26.08 66.0609 26.404 65.4609 26.836C64.8609 27.268 64.5609 27.796 64.5609 28.42C64.5609 28.876 64.6929 29.272 64.9569 29.608C65.2449 29.944 65.6169 30.196 66.0729 30.364C66.5289 30.532 67.0089 30.616 67.5129 30.616ZM80.6557 34C80.4397 34 80.2477 33.928 80.0797 33.784C79.9357 33.616 79.8637 33.424 79.8637 33.208C79.8637 33.136 79.8757 33.052 79.8997 32.956C79.9477 32.836 80.0077 32.728 80.0797 32.632L86.1637 24.388L80.5837 16.648C80.5117 16.552 80.4517 16.456 80.4037 16.36C80.3797 16.264 80.3677 16.168 80.3677 16.072C80.3677 15.856 80.4397 15.676 80.5837 15.532C80.7517 15.364 80.9437 15.28 81.1597 15.28H84.9037C85.1917 15.28 85.4077 15.352 85.5517 15.496C85.7197 15.64 85.8397 15.772 85.9117 15.892L89.6197 20.932L93.3277 15.928C93.4237 15.808 93.5437 15.676 93.6877 15.532C93.8317 15.364 94.0597 15.28 94.3717 15.28H97.9357C98.1517 15.28 98.3317 15.364 98.4757 15.532C98.6437 15.676 98.7277 15.856 98.7277 16.072C98.7277 16.168 98.7157 16.264 98.6917 16.36C98.6677 16.456 98.6077 16.552 98.5117 16.648L92.8237 24.424L98.9797 32.632C99.0517 32.728 99.0997 32.824 99.1237 32.92C99.1717 33.016 99.1957 33.112 99.1957 33.208C99.1957 33.424 99.1117 33.616 98.9437 33.784C98.7997 33.928 98.6197 34 98.4037 34H94.4797C94.2157 34 94.0117 33.94 93.8677 33.82C93.7237 33.676 93.6037 33.544 93.5077 33.424L89.5117 28.096L85.4437 33.424C85.3717 33.52 85.2637 33.64 85.1197 33.784C84.9757 33.928 84.7597 34 84.4717 34H80.6557ZM110.471 34.36C108.719 34.36 107.171 34.036 105.827 33.388C104.507 32.74 103.463 31.804 102.695 30.58C101.927 29.332 101.507 27.844 101.435 26.116C101.411 25.732 101.399 25.252 101.399 24.676C101.399 24.076 101.411 23.584 101.435 23.2C101.507 21.448 101.915 19.96 102.659 18.736C103.427 17.488 104.483 16.54 105.827 15.892C107.171 15.244 108.719 14.92 110.471 14.92C112.079 14.92 113.447 15.148 114.575 15.604C115.703 16.036 116.627 16.588 117.347 17.26C118.067 17.932 118.595 18.64 118.931 19.384C119.291 20.104 119.483 20.74 119.507 21.292C119.531 21.532 119.447 21.748 119.255 21.94C119.087 22.108 118.883 22.192 118.643 22.192H114.791C114.551 22.192 114.359 22.132 114.215 22.012C114.095 21.868 113.975 21.676 113.855 21.436C113.519 20.596 113.087 19.996 112.559 19.636C112.031 19.276 111.371 19.096 110.579 19.096C109.499 19.096 108.647 19.444 108.023 20.14C107.399 20.836 107.063 21.916 107.015 23.38C106.991 24.316 106.991 25.168 107.015 25.936C107.087 27.424 107.423 28.504 108.023 29.176C108.647 29.848 109.499 30.184 110.579 30.184C111.419 30.184 112.091 30.004 112.595 29.644C113.099 29.284 113.519 28.684 113.855 27.844C113.951 27.604 114.071 27.424 114.215 27.304C114.359 27.16 114.551 27.088 114.791 27.088H118.643C118.883 27.088 119.087 27.184 119.255 27.376C119.447 27.544 119.531 27.748 119.507 27.988C119.483 28.396 119.363 28.876 119.147 29.428C118.955 29.98 118.631 30.544 118.175 31.12C117.743 31.696 117.179 32.236 116.483 32.74C115.787 33.22 114.935 33.616 113.927 33.928C112.943 34.216 111.791 34.36 110.471 34.36ZM123.866 34C123.65 34 123.458 33.916 123.29 33.748C123.122 33.58 123.038 33.376 123.038 33.136V16.18C123.038 15.916 123.122 15.7 123.29 15.532C123.458 15.364 123.662 15.28 123.902 15.28H127.502C127.766 15.28 127.982 15.364 128.15 15.532C128.318 15.7 128.402 15.916 128.402 16.18V29.86L126.962 29.032L136.358 15.856C136.478 15.688 136.61 15.556 136.754 15.46C136.922 15.34 137.126 15.28 137.366 15.28H140.606C140.846 15.28 141.05 15.364 141.218 15.532C141.386 15.7 141.47 15.892 141.47 16.108V33.1C141.47 33.364 141.386 33.58 141.218 33.748C141.05 33.916 140.834 34 140.57 34H136.97C136.73 34 136.526 33.916 136.358 33.748C136.19 33.58 136.106 33.364 136.106 33.1V19.96L137.582 20.212L128.114 33.424C128.018 33.592 127.886 33.736 127.718 33.856C127.55 33.952 127.358 34 127.142 34H123.866ZM146.541 34C146.325 34 146.133 33.916 145.965 33.748C145.797 33.58 145.713 33.376 145.713 33.136V16.18C145.713 15.916 145.797 15.7 145.965 15.532C146.133 15.364 146.337 15.28 146.577 15.28H150.177C150.441 15.28 150.657 15.364 150.825 15.532C150.993 15.7 151.077 15.916 151.077 16.18V29.86L149.637 29.032L159.033 15.856C159.153 15.688 159.285 15.556 159.429 15.46C159.597 15.34 159.801 15.28 160.041 15.28H163.281C163.521 15.28 163.725 15.364 163.893 15.532C164.061 15.7 164.145 15.892 164.145 16.108V33.1C164.145 33.364 164.061 33.58 163.893 33.748C163.725 33.916 163.509 34 163.245 34H159.645C159.405 34 159.201 33.916 159.033 33.748C158.865 33.58 158.781 33.364 158.781 33.1V19.96L160.257 20.212L150.789 33.424C150.693 33.592 150.561 33.736 150.393 33.856C150.225 33.952 150.033 34 149.817 34H146.541ZM155.181 12.832C153.717 12.832 152.529 12.604 151.617 12.148C150.729 11.692 150.081 11.092 149.673 10.348C149.289 9.58 149.097 8.74 149.097 7.828C149.097 7.636 149.145 7.48 149.241 7.36C149.361 7.216 149.541 7.144 149.781 7.144H152.229C152.445 7.144 152.613 7.216 152.733 7.36C152.853 7.48 152.913 7.636 152.913 7.828C152.913 8.356 153.069 8.824 153.381 9.232C153.693 9.64 154.293 9.844 155.181 9.844C156.093 9.844 156.693 9.64 156.981 9.232C157.293 8.824 157.449 8.356 157.449 7.828C157.449 7.636 157.509 7.48 157.629 7.36C157.749 7.216 157.917 7.144 158.133 7.144H160.581C160.797 7.144 160.965 7.216 161.085 7.36C161.205 7.48 161.265 7.636 161.265 7.828C161.265 8.74 161.061 9.58 160.653 10.348C160.269 11.092 159.633 11.692 158.745 12.148C157.857 12.604 156.669 12.832 155.181 12.832ZM177.198 34C176.958 34 176.754 33.916 176.586 33.748C176.418 33.58 176.334 33.364 176.334 33.1V16.18C176.334 15.916 176.418 15.7 176.586 15.532C176.754 15.364 176.958 15.28 177.198 15.28H185.406C188.094 15.28 190.062 15.76 191.31 16.72C192.582 17.656 193.218 18.928 193.218 20.536C193.218 21.496 193.038 22.264 192.678 22.84C192.318 23.392 191.814 23.872 191.166 24.28C191.982 24.664 192.618 25.24 193.074 26.008C193.554 26.752 193.794 27.592 193.794 28.528C193.794 30.232 193.134 31.576 191.814 32.56C190.494 33.52 188.514 34 185.874 34H177.198ZM181.518 30.472H185.55C186.39 30.472 187.062 30.316 187.566 30.004C188.094 29.668 188.358 29.152 188.358 28.456C188.358 27.736 188.118 27.22 187.638 26.908C187.158 26.596 186.462 26.44 185.55 26.44H181.518V30.472ZM181.518 22.768H185.406C186.27 22.768 186.954 22.588 187.458 22.228C187.962 21.868 188.214 21.352 188.214 20.68C188.214 19.984 187.962 19.504 187.458 19.24C186.954 18.952 186.27 18.808 185.406 18.808H181.518V22.768ZM203.217 34.36C201.945 34.36 200.805 34.12 199.797 33.64C198.789 33.136 197.985 32.464 197.385 31.624C196.785 30.784 196.485 29.848 196.485 28.816C196.485 27.112 197.169 25.768 198.537 24.784C199.929 23.8 201.753 23.128 204.009 22.768L208.725 22.084V21.436C208.725 20.5 208.509 19.78 208.077 19.276C207.645 18.772 206.889 18.52 205.809 18.52C205.017 18.52 204.381 18.676 203.901 18.988C203.421 19.3 203.049 19.708 202.785 20.212C202.593 20.524 202.317 20.68 201.957 20.68H198.537C198.273 20.68 198.069 20.608 197.925 20.464C197.781 20.296 197.721 20.104 197.745 19.888C197.745 19.48 197.901 19 198.213 18.448C198.525 17.896 199.005 17.356 199.653 16.828C200.301 16.276 201.129 15.82 202.137 15.46C203.145 15.1 204.381 14.92 205.845 14.92C207.357 14.92 208.653 15.1 209.733 15.46C210.813 15.82 211.677 16.324 212.325 16.972C212.973 17.62 213.453 18.376 213.765 19.24C214.077 20.08 214.233 20.992 214.233 21.976V33.1C214.233 33.364 214.149 33.58 213.981 33.748C213.813 33.916 213.597 34 213.333 34H209.805C209.565 34 209.361 33.916 209.193 33.748C209.025 33.58 208.941 33.364 208.941 33.1V31.768C208.629 32.224 208.209 32.656 207.681 33.064C207.153 33.448 206.517 33.76 205.773 34C205.053 34.24 204.201 34.36 203.217 34.36ZM204.657 30.616C205.449 30.616 206.157 30.448 206.781 30.112C207.405 29.776 207.897 29.26 208.257 28.564C208.617 27.868 208.797 26.992 208.797 25.936V25.324L205.449 25.864C204.153 26.08 203.205 26.404 202.605 26.836C202.005 27.268 201.705 27.796 201.705 28.42C201.705 28.876 201.837 29.272 202.101 29.608C202.389 29.944 202.761 30.196 203.217 30.364C203.673 30.532 204.153 30.616 204.657 30.616ZM227.402 34C227.162 34 226.958 33.916 226.79 33.748C226.622 33.58 226.538 33.364 226.538 33.1V16.18C226.538 15.916 226.622 15.7 226.79 15.532C226.958 15.364 227.162 15.28 227.402 15.28H230.93C231.194 15.28 231.41 15.364 231.578 15.532C231.746 15.7 231.83 15.916 231.83 16.18V22.372H234.098L238.274 15.856C238.346 15.712 238.454 15.58 238.598 15.46C238.766 15.34 238.982 15.28 239.246 15.28H243.17C243.386 15.28 243.566 15.352 243.71 15.496C243.878 15.616 243.962 15.772 243.962 15.964C243.962 16.036 243.938 16.12 243.89 16.216C243.866 16.312 243.83 16.396 243.782 16.468L238.706 24.316L244.574 32.848C244.67 32.992 244.718 33.148 244.718 33.316C244.718 33.508 244.646 33.676 244.502 33.82C244.358 33.94 244.178 34 243.962 34H239.606C239.366 34 239.162 33.952 238.994 33.856C238.85 33.736 238.718 33.592 238.598 33.424L234.062 26.656H231.83V33.1C231.83 33.364 231.746 33.58 231.578 33.748C231.41 33.916 231.194 34 230.93 34H227.402ZM253.21 34.36C251.938 34.36 250.798 34.12 249.79 33.64C248.782 33.136 247.978 32.464 247.378 31.624C246.778 30.784 246.478 29.848 246.478 28.816C246.478 27.112 247.162 25.768 248.53 24.784C249.922 23.8 251.746 23.128 254.002 22.768L258.718 22.084V21.436C258.718 20.5 258.502 19.78 258.07 19.276C257.638 18.772 256.882 18.52 255.802 18.52C255.01 18.52 254.374 18.676 253.894 18.988C253.414 19.3 253.042 19.708 252.778 20.212C252.586 20.524 252.31 20.68 251.95 20.68H248.53C248.266 20.68 248.062 20.608 247.918 20.464C247.774 20.296 247.714 20.104 247.738 19.888C247.738 19.48 247.894 19 248.206 18.448C248.518 17.896 248.998 17.356 249.646 16.828C250.294 16.276 251.122 15.82 252.13 15.46C253.138 15.1 254.374 14.92 255.838 14.92C257.35 14.92 258.646 15.1 259.726 15.46C260.806 15.82 261.67 16.324 262.318 16.972C262.966 17.62 263.446 18.376 263.758 19.24C264.07 20.08 264.226 20.992 264.226 21.976V33.1C264.226 33.364 264.142 33.58 263.974 33.748C263.806 33.916 263.59 34 263.326 34H259.798C259.558 34 259.354 33.916 259.186 33.748C259.018 33.58 258.934 33.364 258.934 33.1V31.768C258.622 32.224 258.202 32.656 257.674 33.064C257.146 33.448 256.51 33.76 255.766 34C255.046 34.24 254.194 34.36 253.21 34.36ZM254.65 30.616C255.442 30.616 256.15 30.448 256.774 30.112C257.398 29.776 257.89 29.26 258.25 28.564C258.61 27.868 258.79 26.992 258.79 25.936V25.324L255.442 25.864C254.146 26.08 253.198 26.404 252.598 26.836C251.998 27.268 251.698 27.796 251.698 28.42C251.698 28.876 251.83 29.272 252.094 29.608C252.382 29.944 252.754 30.196 253.21 30.364C253.666 30.532 254.146 30.616 254.65 30.616ZM276.9 34.36C275.148 34.36 273.6 34.036 272.256 33.388C270.936 32.74 269.892 31.804 269.124 30.58C268.356 29.332 267.936 27.844 267.864 26.116C267.84 25.732 267.828 25.252 267.828 24.676C267.828 24.076 267.84 23.584 267.864 23.2C267.936 21.448 268.344 19.96 269.088 18.736C269.856 17.488 270.912 16.54 272.256 15.892C273.6 15.244 275.148 14.92 276.9 14.92C278.508 14.92 279.876 15.148 281.004 15.604C282.132 16.036 283.056 16.588 283.776 17.26C284.496 17.932 285.024 18.64 285.36 19.384C285.72 20.104 285.912 20.74 285.936 21.292C285.96 21.532 285.876 21.748 285.684 21.94C285.516 22.108 285.312 22.192 285.072 22.192H281.22C280.98 22.192 280.788 22.132 280.644 22.012C280.524 21.868 280.404 21.676 280.284 21.436C279.948 20.596 279.516 19.996 278.988 19.636C278.46 19.276 277.8 19.096 277.008 19.096C275.928 19.096 275.076 19.444 274.452 20.14C273.828 20.836 273.492 21.916 273.444 23.38C273.42 24.316 273.42 25.168 273.444 25.936C273.516 27.424 273.852 28.504 274.452 29.176C275.076 29.848 275.928 30.184 277.008 30.184C277.848 30.184 278.52 30.004 279.024 29.644C279.528 29.284 279.948 28.684 280.284 27.844C280.38 27.604 280.5 27.424 280.644 27.304C280.788 27.16 280.98 27.088 281.22 27.088H285.072C285.312 27.088 285.516 27.184 285.684 27.376C285.876 27.544 285.96 27.748 285.936 27.988C285.912 28.396 285.792 28.876 285.576 29.428C285.384 29.98 285.06 30.544 284.604 31.12C284.172 31.696 283.608 32.236 282.912 32.74C282.216 33.22 281.364 33.616 280.356 33.928C279.372 34.216 278.22 34.36 276.9 34.36ZM298.179 34.36C296.091 34.36 294.375 34.012 293.031 33.316C291.711 32.62 290.715 31.576 290.043 30.184C289.395 28.768 289.023 27.016 288.927 24.928C288.903 24.232 288.891 23.512 288.891 22.768C288.891 22.024 288.903 21.304 288.927 20.608C288.975 18.544 289.179 16.816 289.539 15.424C289.923 14.008 290.487 12.844 291.231 11.932C291.999 10.996 292.971 10.228 294.147 9.628C295.347 9.004 296.775 8.464 298.431 8.008C300.087 7.552 302.007 7.072 304.191 6.568C304.431 6.52 304.659 6.556 304.875 6.676C305.091 6.796 305.211 6.988 305.235 7.252L305.775 10.06C305.823 10.324 305.775 10.552 305.631 10.744C305.511 10.936 305.343 11.056 305.127 11.104C303.279 11.488 301.707 11.836 300.411 12.148C299.115 12.46 298.035 12.82 297.171 13.228C296.331 13.612 295.683 14.128 295.227 14.776C294.771 15.4 294.447 16.228 294.255 17.26C294.087 18.268 294.027 19.552 294.075 21.112L293.247 20.284C293.415 19.588 293.787 18.964 294.363 18.412C294.939 17.86 295.647 17.416 296.487 17.08C297.327 16.72 298.215 16.54 299.151 16.54C300.903 16.54 302.379 16.852 303.579 17.476C304.779 18.1 305.691 18.988 306.315 20.14C306.963 21.268 307.335 22.624 307.431 24.208C307.479 25.096 307.479 25.924 307.431 26.692C307.335 28.228 306.927 29.584 306.207 30.76C305.511 31.912 304.491 32.8 303.147 33.424C301.803 34.048 300.147 34.36 298.179 34.36ZM298.179 30.724C299.355 30.724 300.243 30.376 300.843 29.68C301.443 28.96 301.767 27.904 301.815 26.512C301.839 26.248 301.851 25.912 301.851 25.504C301.851 25.072 301.839 24.688 301.815 24.352C301.767 23.008 301.443 21.976 300.843 21.256C300.267 20.536 299.463 20.176 298.431 20.176C297.231 20.176 296.295 20.536 295.623 21.256C294.951 21.976 294.579 23.008 294.507 24.352C294.483 24.688 294.471 25.072 294.471 25.504C294.471 25.912 294.483 26.248 294.507 26.512C294.579 27.904 294.915 28.96 295.515 29.68C296.115 30.376 297.003 30.724 298.179 30.724ZM312.092 34C311.876 34 311.684 33.916 311.516 33.748C311.348 33.58 311.264 33.376 311.264 33.136V16.18C311.264 15.916 311.348 15.7 311.516 15.532C311.684 15.364 311.888 15.28 312.128 15.28H315.728C315.992 15.28 316.208 15.364 316.376 15.532C316.544 15.7 316.628 15.916 316.628 16.18V29.86L315.188 29.032L324.584 15.856C324.704 15.688 324.836 15.556 324.98 15.46C325.148 15.34 325.352 15.28 325.592 15.28H328.832C329.072 15.28 329.276 15.364 329.444 15.532C329.612 15.7 329.696 15.892 329.696 16.108V33.1C329.696 33.364 329.612 33.58 329.444 33.748C329.276 33.916 329.06 34 328.796 34H325.196C324.956 34 324.752 33.916 324.584 33.748C324.416 33.58 324.332 33.364 324.332 33.1V19.96L325.808 20.212L316.34 33.424C316.244 33.592 316.112 33.736 315.944 33.856C315.776 33.952 315.584 34 315.368 34H312.092ZM334.768 34C334.552 34 334.36 33.916 334.192 33.748C334.024 33.58 333.94 33.376 333.94 33.136V16.18C333.94 15.916 334.024 15.7 334.192 15.532C334.36 15.364 334.564 15.28 334.804 15.28H338.404C338.668 15.28 338.884 15.364 339.052 15.532C339.22 15.7 339.304 15.916 339.304 16.18V29.86L337.864 29.032L347.26 15.856C347.38 15.688 347.512 15.556 347.656 15.46C347.824 15.34 348.028 15.28 348.268 15.28H351.508C351.748 15.28 351.952 15.364 352.12 15.532C352.288 15.7 352.372 15.892 352.372 16.108V33.1C352.372 33.364 352.288 33.58 352.12 33.748C351.952 33.916 351.736 34 351.472 34H347.872C347.632 34 347.428 33.916 347.26 33.748C347.092 33.58 347.008 33.364 347.008 33.1V19.96L348.484 20.212L339.016 33.424C338.92 33.592 338.788 33.736 338.62 33.856C338.452 33.952 338.26 34 338.044 34H334.768ZM343.408 12.832C341.944 12.832 340.756 12.604 339.844 12.148C338.956 11.692 338.308 11.092 337.9 10.348C337.516 9.58 337.324 8.74 337.324 7.828C337.324 7.636 337.372 7.48 337.468 7.36C337.588 7.216 337.768 7.144 338.008 7.144H340.456C340.672 7.144 340.84 7.216 340.96 7.36C341.08 7.48 341.14 7.636 341.14 7.828C341.14 8.356 341.296 8.824 341.608 9.232C341.92 9.64 342.52 9.844 343.408 9.844C344.32 9.844 344.92 9.64 345.208 9.232C345.52 8.824 345.676 8.356 345.676 7.828C345.676 7.636 345.736 7.48 345.856 7.36C345.976 7.216 346.144 7.144 346.36 7.144H348.808C349.024 7.144 349.192 7.216 349.312 7.36C349.432 7.48 349.492 7.636 349.492 7.828C349.492 8.74 349.288 9.58 348.88 10.348C348.496 11.092 347.86 11.692 346.972 12.148C346.084 12.604 344.896 12.832 343.408 12.832ZM363.769 34C363.553 34 363.361 33.928 363.193 33.784C363.049 33.616 362.977 33.424 362.977 33.208C362.977 33.136 362.989 33.052 363.013 32.956C363.061 32.836 363.121 32.728 363.193 32.632L369.277 24.388L363.697 16.648C363.625 16.552 363.565 16.456 363.517 16.36C363.493 16.264 363.481 16.168 363.481 16.072C363.481 15.856 363.553 15.676 363.697 15.532C363.865 15.364 364.057 15.28 364.273 15.28H368.017C368.305 15.28 368.521 15.352 368.665 15.496C368.833 15.64 368.953 15.772 369.025 15.892L372.733 20.932L376.441 15.928C376.537 15.808 376.657 15.676 376.801 15.532C376.945 15.364 377.173 15.28 377.485 15.28H381.049C381.265 15.28 381.445 15.364 381.589 15.532C381.757 15.676 381.841 15.856 381.841 16.072C381.841 16.168 381.829 16.264 381.805 16.36C381.781 16.456 381.721 16.552 381.625 16.648L375.937 24.424L382.093 32.632C382.165 32.728 382.213 32.824 382.237 32.92C382.285 33.016 382.309 33.112 382.309 33.208C382.309 33.424 382.225 33.616 382.057 33.784C381.913 33.928 381.733 34 381.517 34H377.593C377.329 34 377.125 33.94 376.981 33.82C376.837 33.676 376.717 33.544 376.621 33.424L372.625 28.096L368.557 33.424C368.485 33.52 368.377 33.64 368.233 33.784C368.089 33.928 367.873 34 367.585 34H363.769ZM386.816 40.876C386.552 40.876 386.336 40.78 386.168 40.588C386 40.42 385.916 40.216 385.916 39.976V37.492C385.916 37.252 386 37.048 386.168 36.88C386.336 36.712 386.552 36.628 386.816 36.628H388.004C388.46 36.628 388.832 36.532 389.12 36.34C389.432 36.172 389.708 35.884 389.948 35.476C390.188 35.068 390.464 34.504 390.776 33.784L398.12 16C398.192 15.808 398.3 15.64 398.444 15.496C398.612 15.352 398.84 15.28 399.128 15.28H402.44C402.632 15.28 402.8 15.364 402.944 15.532C403.112 15.676 403.196 15.844 403.196 16.036C403.196 16.084 403.184 16.156 403.16 16.252C403.16 16.324 403.136 16.42 403.088 16.54L396.248 32.956C395.792 34.06 395.312 35.092 394.808 36.052C394.328 37.012 393.8 37.852 393.224 38.572C392.648 39.292 391.964 39.856 391.172 40.264C390.404 40.672 389.516 40.876 388.508 40.876H386.816ZM391.244 33.568L383.936 16.54C383.84 16.348 383.792 16.192 383.792 16.072C383.816 15.856 383.9 15.676 384.044 15.532C384.212 15.364 384.404 15.28 384.62 15.28H388.076C388.364 15.28 388.58 15.364 388.724 15.532C388.868 15.676 388.976 15.832 389.048 16L394.448 29.464L391.244 33.568ZM414.502 34.36C412.75 34.36 411.202 34.036 409.858 33.388C408.538 32.74 407.494 31.804 406.726 30.58C405.958 29.332 405.538 27.844 405.466 26.116C405.442 25.732 405.43 25.252 405.43 24.676C405.43 24.076 405.442 23.584 405.466 23.2C405.538 21.448 405.946 19.96 406.69 18.736C407.458 17.488 408.514 16.54 409.858 15.892C411.202 15.244 412.75 14.92 414.502 14.92C416.11 14.92 417.478 15.148 418.606 15.604C419.734 16.036 420.658 16.588 421.378 17.26C422.098 17.932 422.626 18.64 422.962 19.384C423.322 20.104 423.514 20.74 423.538 21.292C423.562 21.532 423.478 21.748 423.286 21.94C423.118 22.108 422.914 22.192 422.674 22.192H418.822C418.582 22.192 418.39 22.132 418.246 22.012C418.126 21.868 418.006 21.676 417.886 21.436C417.55 20.596 417.118 19.996 416.59 19.636C416.062 19.276 415.402 19.096 414.61 19.096C413.53 19.096 412.678 19.444 412.054 20.14C411.43 20.836 411.094 21.916 411.046 23.38C411.022 24.316 411.022 25.168 411.046 25.936C411.118 27.424 411.454 28.504 412.054 29.176C412.678 29.848 413.53 30.184 414.61 30.184C415.45 30.184 416.122 30.004 416.626 29.644C417.13 29.284 417.55 28.684 417.886 27.844C417.982 27.604 418.102 27.424 418.246 27.304C418.39 27.16 418.582 27.088 418.822 27.088H422.674C422.914 27.088 423.118 27.184 423.286 27.376C423.478 27.544 423.562 27.748 423.538 27.988C423.514 28.396 423.394 28.876 423.178 29.428C422.986 29.98 422.662 30.544 422.206 31.12C421.774 31.696 421.21 32.236 420.514 32.74C419.818 33.22 418.966 33.616 417.958 33.928C416.974 34.216 415.822 34.36 414.502 34.36ZM428.617 40.876C428.353 40.876 428.137 40.78 427.969 40.588C427.801 40.42 427.717 40.216 427.717 39.976V37.492C427.717 37.252 427.801 37.048 427.969 36.88C428.137 36.712 428.353 36.628 428.617 36.628H429.805C430.261 36.628 430.633 36.532 430.921 36.34C431.233 36.172 431.509 35.884 431.749 35.476C431.989 35.068 432.265 34.504 432.577 33.784L439.921 16C439.993 15.808 440.101 15.64 440.245 15.496C440.413 15.352 440.641 15.28 440.929 15.28H444.241C444.433 15.28 444.601 15.364 444.745 15.532C444.913 15.676 444.997 15.844 444.997 16.036C444.997 16.084 444.985 16.156 444.961 16.252C444.961 16.324 444.937 16.42 444.889 16.54L438.049 32.956C437.593 34.06 437.113 35.092 436.609 36.052C436.129 37.012 435.601 37.852 435.025 38.572C434.449 39.292 433.765 39.856 432.973 40.264C432.205 40.672 431.317 40.876 430.309 40.876H428.617ZM433.045 33.568L425.737 16.54C425.641 16.348 425.593 16.192 425.593 16.072C425.617 15.856 425.701 15.676 425.845 15.532C426.013 15.364 426.205 15.28 426.421 15.28H429.877C430.165 15.28 430.381 15.364 430.525 15.532C430.669 15.676 430.777 15.832 430.849 16L436.249 29.464L433.045 33.568ZM456.303 34.36C454.551 34.36 453.003 34.036 451.659 33.388C450.339 32.74 449.295 31.804 448.527 30.58C447.759 29.332 447.339 27.844 447.267 26.116C447.243 25.732 447.231 25.252 447.231 24.676C447.231 24.076 447.243 23.584 447.267 23.2C447.339 21.448 447.747 19.96 448.491 18.736C449.259 17.488 450.315 16.54 451.659 15.892C453.003 15.244 454.551 14.92 456.303 14.92C457.911 14.92 459.279 15.148 460.407 15.604C461.535 16.036 462.459 16.588 463.179 17.26C463.899 17.932 464.427 18.64 464.763 19.384C465.123 20.104 465.315 20.74 465.339 21.292C465.363 21.532 465.279 21.748 465.087 21.94C464.919 22.108 464.715 22.192 464.475 22.192H460.623C460.383 22.192 460.191 22.132 460.047 22.012C459.927 21.868 459.807 21.676 459.687 21.436C459.351 20.596 458.919 19.996 458.391 19.636C457.863 19.276 457.203 19.096 456.411 19.096C455.331 19.096 454.479 19.444 453.855 20.14C453.231 20.836 452.895 21.916 452.847 23.38C452.823 24.316 452.823 25.168 452.847 25.936C452.919 27.424 453.255 28.504 453.855 29.176C454.479 29.848 455.331 30.184 456.411 30.184C457.251 30.184 457.923 30.004 458.427 29.644C458.931 29.284 459.351 28.684 459.687 27.844C459.783 27.604 459.903 27.424 460.047 27.304C460.191 27.16 460.383 27.088 460.623 27.088H464.475C464.715 27.088 464.919 27.184 465.087 27.376C465.279 27.544 465.363 27.748 465.339 27.988C465.315 28.396 465.195 28.876 464.979 29.428C464.787 29.98 464.463 30.544 464.007 31.12C463.575 31.696 463.011 32.236 462.315 32.74C461.619 33.22 460.767 33.616 459.759 33.928C458.775 34.216 457.623 34.36 456.303 34.36ZM469.698 34C469.482 34 469.29 33.916 469.122 33.748C468.954 33.58 468.87 33.376 468.87 33.136V16.18C468.87 15.916 468.954 15.7 469.122 15.532C469.29 15.364 469.494 15.28 469.734 15.28H473.334C473.598 15.28 473.814 15.364 473.982 15.532C474.15 15.7 474.234 15.916 474.234 16.18V29.86L472.794 29.032L482.19 15.856C482.31 15.688 482.442 15.556 482.586 15.46C482.754 15.34 482.958 15.28 483.198 15.28H486.438C486.678 15.28 486.882 15.364 487.05 15.532C487.218 15.7 487.302 15.892 487.302 16.108V33.1C487.302 33.364 487.218 33.58 487.05 33.748C486.882 33.916 486.666 34 486.402 34H482.802C482.562 34 482.358 33.916 482.19 33.748C482.022 33.58 481.938 33.364 481.938 33.1V19.96L483.414 20.212L473.946 33.424C473.85 33.592 473.718 33.736 473.55 33.856C473.382 33.952 473.19 34 472.974 34H469.698ZM503.497 34C503.233 34 503.017 33.916 502.849 33.748C502.681 33.58 502.597 33.364 502.597 33.1V27.808H499.321V27.628C496.825 27.628 494.941 27.076 493.669 25.972C492.397 24.844 491.761 23.344 491.761 21.472C491.761 19.432 492.409 17.896 493.705 16.864C495.025 15.808 496.885 15.28 499.285 15.28H507.205C507.469 15.28 507.685 15.364 507.853 15.532C508.021 15.7 508.105 15.916 508.105 16.18V33.1C508.105 33.364 508.021 33.58 507.853 33.748C507.685 33.916 507.469 34 507.205 34H503.497ZM491.905 34C491.689 34 491.509 33.928 491.365 33.784C491.221 33.64 491.149 33.472 491.149 33.28C491.149 33.208 491.161 33.124 491.185 33.028C491.233 32.932 491.293 32.836 491.365 32.74L495.289 26.404L500.113 27.16L496.441 33.46C496.345 33.604 496.213 33.736 496.045 33.856C495.901 33.952 495.733 34 495.541 34H491.905ZM499.321 24.028H502.705V19.06H499.501C498.517 19.06 497.785 19.24 497.305 19.6C496.825 19.96 496.585 20.584 496.585 21.472C496.585 22.216 496.801 22.828 497.233 23.308C497.689 23.788 498.385 24.028 499.321 24.028ZM518.433 34C518.169 34 517.953 33.916 517.785 33.748C517.617 33.58 517.533 33.364 517.533 33.1V19.528H511.881C511.617 19.528 511.401 19.444 511.233 19.276C511.065 19.108 510.981 18.892 510.981 18.628V16.18C510.981 15.916 511.065 15.7 511.233 15.532C511.401 15.364 511.617 15.28 511.881 15.28H528.477C528.741 15.28 528.957 15.364 529.125 15.532C529.293 15.7 529.377 15.916 529.377 16.18V18.628C529.377 18.892 529.293 19.108 529.125 19.276C528.957 19.444 528.741 19.528 528.477 19.528H522.825V33.1C522.825 33.364 522.741 33.58 522.573 33.748C522.405 33.916 522.201 34 521.961 34H518.433ZM531.683 34C531.443 34 531.227 33.916 531.035 33.748C530.867 33.556 530.783 33.34 530.783 33.1V30.4C530.783 29.872 531.071 29.584 531.647 29.536C532.343 29.464 532.883 29.14 533.267 28.564C533.675 27.964 533.963 27.052 534.131 25.828C534.299 24.604 534.383 23.032 534.383 21.112V16.18C534.383 15.916 534.467 15.7 534.635 15.532C534.803 15.364 535.019 15.28 535.283 15.28H548.711C548.975 15.28 549.191 15.364 549.359 15.532C549.527 15.7 549.611 15.916 549.611 16.18V33.1C549.611 33.364 549.527 33.58 549.359 33.748C549.191 33.916 548.975 34 548.711 34H545.111C544.871 34 544.655 33.916 544.463 33.748C544.295 33.58 544.211 33.364 544.211 33.1V19.528H539.531V21.724C539.531 24.004 539.399 25.936 539.135 27.52C538.895 29.104 538.475 30.376 537.875 31.336C537.275 32.272 536.471 32.956 535.463 33.388C534.455 33.796 533.195 34 531.683 34ZM559.772 34.36C558.5 34.36 557.36 34.12 556.352 33.64C555.344 33.136 554.54 32.464 553.94 31.624C553.34 30.784 553.04 29.848 553.04 28.816C553.04 27.112 553.724 25.768 555.092 24.784C556.484 23.8 558.308 23.128 560.564 22.768L565.28 22.084V21.436C565.28 20.5 565.064 19.78 564.632 19.276C564.2 18.772 563.444 18.52 562.364 18.52C561.572 18.52 560.936 18.676 560.456 18.988C559.976 19.3 559.604 19.708 559.34 20.212C559.148 20.524 558.872 20.68 558.512 20.68H555.092C554.828 20.68 554.624 20.608 554.48 20.464C554.336 20.296 554.276 20.104 554.3 19.888C554.3 19.48 554.456 19 554.768 18.448C555.08 17.896 555.56 17.356 556.208 16.828C556.856 16.276 557.684 15.82 558.692 15.46C559.7 15.1 560.936 14.92 562.4 14.92C563.912 14.92 565.208 15.1 566.288 15.46C567.368 15.82 568.232 16.324 568.88 16.972C569.528 17.62 570.008 18.376 570.32 19.24C570.632 20.08 570.788 20.992 570.788 21.976V33.1C570.788 33.364 570.704 33.58 570.536 33.748C570.368 33.916 570.152 34 569.888 34H566.36C566.12 34 565.916 33.916 565.748 33.748C565.58 33.58 565.496 33.364 565.496 33.1V31.768C565.184 32.224 564.764 32.656 564.236 33.064C563.708 33.448 563.072 33.76 562.328 34C561.608 34.24 560.756 34.36 559.772 34.36ZM561.212 30.616C562.004 30.616 562.712 30.448 563.336 30.112C563.96 29.776 564.452 29.26 564.812 28.564C565.172 27.868 565.352 26.992 565.352 25.936V25.324L562.004 25.864C560.708 26.08 559.76 26.404 559.16 26.836C558.56 27.268 558.26 27.796 558.26 28.42C558.26 28.876 558.392 29.272 558.656 29.608C558.944 29.944 559.316 30.196 559.772 30.364C560.228 30.532 560.708 30.616 561.212 30.616ZM576.047 40.84C575.783 40.84 575.567 40.756 575.399 40.588C575.231 40.42 575.147 40.204 575.147 39.94V16.18C575.147 15.916 575.231 15.7 575.399 15.532C575.567 15.364 575.783 15.28 576.047 15.28H579.467C579.731 15.28 579.947 15.364 580.115 15.532C580.283 15.7 580.367 15.916 580.367 16.18V17.548C580.943 16.78 581.687 16.156 582.599 15.676C583.511 15.172 584.651 14.92 586.019 14.92C587.267 14.92 588.347 15.124 589.259 15.532C590.195 15.916 590.975 16.48 591.599 17.224C592.247 17.944 592.739 18.82 593.075 19.852C593.435 20.884 593.639 22.048 593.687 23.344C593.711 23.8 593.723 24.232 593.723 24.64C593.723 25.048 593.711 25.492 593.687 25.972C593.663 27.196 593.471 28.324 593.111 29.356C592.775 30.388 592.283 31.276 591.635 32.02C590.987 32.764 590.195 33.34 589.259 33.748C588.347 34.156 587.267 34.36 586.019 34.36C584.795 34.36 583.727 34.144 582.815 33.712C581.927 33.256 581.195 32.644 580.619 31.876V39.94C580.619 40.204 580.535 40.42 580.367 40.588C580.199 40.756 579.995 40.84 579.755 40.84H576.047ZM584.399 30.04C585.311 30.04 586.031 29.848 586.559 29.464C587.087 29.056 587.459 28.528 587.675 27.88C587.915 27.232 588.059 26.524 588.107 25.756C588.155 25.012 588.155 24.268 588.107 23.524C588.059 22.756 587.915 22.048 587.675 21.4C587.459 20.752 587.087 20.236 586.559 19.852C586.031 19.444 585.311 19.24 584.399 19.24C583.511 19.24 582.791 19.444 582.239 19.852C581.687 20.26 581.291 20.776 581.051 21.4C580.811 22.024 580.667 22.696 580.619 23.416C580.595 23.848 580.583 24.292 580.583 24.748C580.583 25.204 580.595 25.66 580.619 26.116C580.643 26.788 580.787 27.424 581.051 28.024C581.339 28.6 581.747 29.08 582.275 29.464C582.827 29.848 583.535 30.04 584.399 30.04Z" fill="black"/>
<rect x="606" y="19.5" width="706" height="4" fill="#DEE2E6"/>
</svg>
